<svg xmlns="http://www.w3.org/2000/svg" width="1280" height="320" viewBox="0 0 1280 320" role="img" aria-labelledby="title desc">
  <title id="title">Sensoriamento Remoto</title>
  <desc id="desc">Banner do repositorio da disciplina</desc>
  <defs>
    <linearGradient id="bg" x1="0%" y1="0%" x2="100%" y2="100%">
      <stop offset="0%" stop-color="#0b3c49"/>
      <stop offset="55%" stop-color="#1f6f5b"/>
      <stop offset="100%" stop-color="#d9a441"/>
    </linearGradient>
    <linearGradient id="panel" x1="0%" y1="0%" x2="100%" y2="0%">
      <stop offset="0%" stop-color="#ffffff" stop-opacity="0.16"/>
      <stop offset="100%" stop-color="#ffffff" stop-opacity="0.05"/>
    </linearGradient>
  </defs>
  <rect width="1280" height="320" fill="url(#bg)"/>
  <circle cx="1050" cy="70" r="130" fill="#ffffff" fill-opacity="0.10"/>
  <circle cx="1120" cy="235" r="180" fill="#ffffff" fill-opacity="0.07"/>
  <rect x="56" y="42" width="1168" height="236" rx="24" fill="url(#panel)" stroke="#ffffff" stroke-opacity="0.15"/>
  <g fill="none" stroke="#ffffff" stroke-opacity="0.26">
    <path d="M84 235 C180 170, 250 200, 330 155 S510 120, 600 150 S770 205, 850 165 S1000 90, 1195 125" stroke-width="3"/>
    <path d="M84 260 C160 225, 270 230, 365 205 S540 180, 650 205 S820 255, 930 220 S1090 165, 1195 188" stroke-width="2"/>
    <path d="M220 64 L320 64 L352 100 L452 100" stroke-width="2"/>
    <path d="M220 96 L290 96 L322 132 L392 132" stroke-width="2"/>
  </g>
  <g fill="#ffffff">
    <text x="96" y="128" font-size="44" font-family="Segoe UI, Arial, sans-serif" font-weight="700">Sensoriamento Remoto</text>
    <text x="96" y="170" font-size="22" font-family="Segoe UI, Arial, sans-serif" opacity="0.92">PPGCF / UFRPE</text>
    <text x="96" y="208" font-size="20" font-family="Segoe UI, Arial, sans-serif" opacity="0.86">Aulas, notebooks, scripts e projetos aplicados</text>
  </g>
  <g transform="translate(910 98)">
    <rect x="0" y="0" width="190" height="118" rx="18" fill="#0b2630" fill-opacity="0.35" stroke="#ffffff" stroke-opacity="0.18"/>
    <rect x="18" y="18" width="36" height="82" fill="#1c8f6a"/>
    <rect x="60" y="34" width="36" height="66" fill="#b7d36b"/>
    <rect x="102" y="52" width="36" height="48" fill="#f0c14b"/>
    <rect x="144" y="24" width="24" height="76" fill="#d95d39"/>
  </g>
</svg>
